<svg width="31" height="25" viewBox="0 0 31 25" fill="none" xmlns="http://www.w3.org/2000/svg">
<path d="M28.323 0.200195L30.8571 2.43622C29.234 3.86065 27.9089 5.23539 26.882 6.56044C25.8882 7.85237 25.2588 8.82959 24.9938 9.49212C24.7288 10.1546 24.4803 10.9497 24.2484 11.8772L24.4472 12.1754C26.6667 12.1754 28.2899 12.6557 29.3168 13.6163C30.3437 14.577 30.8571 16.0677 30.8571 18.0884C30.8571 19.6453 30.294 21.0532 29.1677 22.312C28.0745 23.5708 26.6998 24.2002 25.0435 24.2002C23.1553 24.2002 21.5818 23.6702 20.323 22.6101C19.0642 21.5501 18.4348 19.8441 18.4348 17.4921C18.4348 14.3782 19.3954 11.165 21.3168 7.85237C23.2712 4.50661 25.6066 1.95589 28.323 0.200195ZM9.8882 0.200195L12.4224 2.43622C10.7992 3.86065 9.49068 5.21883 8.49689 6.51075C7.50311 7.80268 6.85714 8.79647 6.55901 9.49212C6.294 10.1878 6.04555 10.9828 5.81366 11.8772L6.01242 12.1754C8.23188 12.1754 9.85507 12.6557 10.882 13.6163C11.9089 14.577 12.4224 16.0677 12.4224 18.0884C12.4224 19.6453 11.8592 21.0532 10.7329 22.312C9.63975 23.5708 8.26501 24.2002 6.6087 24.2002C4.7205 24.2002 3.147 23.6702 1.8882 22.6101C0.6294 21.5501 0 19.8441 0 17.4921C0 14.3782 0.960662 11.165 2.88199 7.85237C4.83644 4.50661 7.17184 1.95589 9.8882 0.200195Z" fill="white"/>
</svg>
